<svg width="296" height="86" viewBox="0 0 296 86" fill="none" xmlns="http://www.w3.org/2000/svg">
<g clip-path="url(#clip0_115_370)">
<path fill-rule="evenodd" clip-rule="evenodd" d="M42.1858 0.21811C41.7769 0.453141 40.7299 1.48242 39.9755 2.3916C38.8814 3.7097 38.5255 4.13039 38.208 4.48184C38.0245 4.68445 37.4918 5.32029 37.0232 5.89424C36.5546 6.46819 35.9689 7.15928 35.7221 7.42894C35.4745 7.69934 35.0538 8.19667 34.7864 8.53411C34.5182 8.87229 34.1535 9.3033 33.9752 9.49266C33.7976 9.68127 33.6517 9.86104 33.6517 9.89125C33.6517 9.92146 33.5545 10.0445 33.4366 10.1646C33.3187 10.2847 32.9732 10.6811 32.6689 11.045C32.3653 11.409 32.0198 11.8083 31.9019 11.9321C31.7833 12.0559 31.6867 12.1789 31.6867 12.2062C31.6867 12.2335 31.5224 12.4412 31.322 12.6682L30.9566 13.0808L29.1419 12.9224C28.1443 12.8354 26.3466 12.6829 25.1478 12.5834C23.9491 12.484 21.9871 12.3204 20.7883 12.2202C14.3261 11.6809 14.3865 11.6816 13.4125 12.1826C12.9962 12.397 12.7707 12.6225 12.5563 13.0388C12.0553 14.0128 12.0546 13.9524 12.5939 20.4146C12.6941 21.6134 12.8577 23.5754 12.9579 24.7741C13.0573 25.9729 13.2113 27.7699 13.2997 28.7682C13.4581 30.5468 13.4567 30.5851 13.2106 30.7546C13.0728 30.8489 12.7612 31.1104 12.518 31.3344C12.062 31.7566 11.9448 31.856 10.8094 32.7859C10.4388 33.0894 9.91499 33.5396 9.64459 33.7864C9.37493 34.0332 8.8776 34.4547 8.53942 34.7221C8.20198 34.9896 7.77097 35.3543 7.58161 35.5326C7.39226 35.7109 7.18523 35.8567 7.12113 35.8567C7.05703 35.8567 7.00398 35.898 7.00398 35.9488C7.00324 35.9989 6.56191 36.3997 6.02259 36.8389C5.48327 37.278 5.04121 37.6788 5.04121 37.7289C5.04047 37.7797 4.96164 37.821 4.86586 37.821C4.77007 37.821 4.67356 37.8711 4.65145 37.933C4.62861 37.9941 4.19686 38.3898 3.69217 38.8112C3.18674 39.2334 2.71005 39.6394 2.63121 39.713C2.55311 39.7867 2.12063 40.1735 1.67045 40.5721C-0.133912 42.168 -0.149384 43.8132 1.62551 45.4068C1.90622 45.6588 2.2223 45.9521 2.32913 46.0589C2.43523 46.1657 2.99223 46.6343 3.56618 47.1007C4.14013 47.5663 4.63745 47.9797 4.67135 48.0187C4.70524 48.0578 5.31308 48.5765 6.02259 49.171C6.73137 49.7656 7.33037 50.3005 7.35248 50.3602C7.37532 50.4206 7.46741 50.4692 7.5573 50.4692C7.64719 50.4692 7.73928 50.5179 7.76212 50.5783C7.78423 50.638 8.21745 51.0292 8.72362 51.4477C9.23052 51.8662 9.97098 52.4939 10.3696 52.8431C10.7682 53.1924 11.2427 53.588 11.4239 53.7236C11.6052 53.8584 12.1393 54.3137 12.6101 54.7352L13.4663 55.5014L13.3115 56.8225C13.2261 57.5497 13.1553 58.4478 13.1539 58.8191C13.1524 59.1905 13.0677 60.3509 12.9652 61.3978C12.8628 62.4448 12.6978 64.2963 12.5976 65.512C12.4981 66.7277 12.3589 68.4127 12.2881 69.257C11.9249 73.607 12.6801 74.486 16.504 74.1655C17.324 74.0969 18.9899 73.9584 20.2055 73.8575C22.253 73.6873 26.1425 73.3513 29.4447 73.0596C30.7901 72.9409 31.3184 73.0198 31.3184 73.3388C31.3184 73.3904 31.4149 73.5326 31.5335 73.6549C31.6514 73.7772 31.9969 74.1736 32.3005 74.5346C32.6048 74.8963 32.9636 75.3163 33.0991 75.4673C33.4322 75.8394 34.1041 76.6462 34.8829 77.6069C35.2387 78.0461 35.5946 78.4609 35.6749 78.5279C35.7552 78.5957 36.1995 79.121 36.6637 79.695C37.4491 80.6668 37.855 81.1435 38.3236 81.6415C38.4275 81.7528 38.7591 82.1477 39.0597 82.519C39.6867 83.2941 39.6049 83.1991 40.6511 84.3698C42.3671 86.2913 44.5553 86.6052 45.5713 85.0756C45.6531 84.9526 46.4834 83.9756 46.8459 83.5748C46.9844 83.4216 47.3462 83.0009 47.6505 82.6391C47.954 82.2781 48.2996 81.8817 48.4175 81.7594C48.5361 81.6371 48.6326 81.5089 48.6326 81.475C48.6326 81.4411 48.7291 81.3137 48.8477 81.1914C48.9656 81.0691 49.3112 80.6719 49.6147 80.3102C49.919 79.9477 50.2646 79.566 50.3825 79.4614C50.5003 79.3575 50.5976 79.2013 50.5976 79.1151C50.5976 79.0282 50.6388 78.9575 50.6897 78.9575C50.7398 78.9575 51.0581 78.6141 51.3955 78.1949C51.733 77.7764 52.1478 77.2879 52.3165 77.1096C52.6311 76.7773 52.7166 76.6764 53.667 75.5174C53.9706 75.1476 54.3728 74.6783 54.5614 74.4756C54.7501 74.273 55.1096 73.8398 55.3601 73.5127L55.8162 72.9174L56.4299 72.9903C56.7681 73.0301 57.5137 73.0934 58.0877 73.1303C58.6616 73.1664 60.2641 73.3019 61.6492 73.4309C63.0336 73.5598 65.244 73.7529 66.5606 73.8597C67.878 73.9673 69.5924 74.1102 70.3705 74.178C74.4235 74.5302 74.9694 73.5731 74.3689 67.1698C74.2643 66.055 74.0941 64.121 73.991 62.8714C73.8878 61.6218 73.6889 59.4469 73.5489 58.0374C73.4089 56.628 73.3404 55.4366 73.3964 55.3894C73.4531 55.3423 73.8024 55.0586 74.173 54.7595C74.5436 54.4596 74.9584 54.1008 75.0939 53.9616C75.2295 53.8223 75.7276 53.4016 76.2006 53.0259C76.6729 52.6501 77.2004 52.211 77.3728 52.0504C77.5445 51.8897 77.9865 51.5103 78.3549 51.2067C78.7233 50.9032 79.0865 50.5989 79.1624 50.5311C79.2383 50.4633 79.5647 50.187 79.8881 49.9167C80.2109 49.6463 80.5358 49.37 80.6095 49.3022C80.6831 49.2344 81.0478 48.9331 81.4192 48.6325C81.7905 48.3318 82.1832 48.0003 82.2915 47.8964C82.6334 47.5678 83.1764 47.1103 83.8748 46.5636C87.3701 43.8287 87.3959 42.3757 83.9979 39.5554C83.4917 39.1347 82.9391 38.6668 82.7697 38.5143C82.601 38.3625 81.9953 37.8541 81.4243 37.3848C80.8533 36.9155 80.2455 36.4005 80.0738 36.2399C79.9021 36.0792 79.4026 35.6578 78.9635 35.3042C78.5244 34.9498 78.0241 34.5283 77.8524 34.3677C77.5798 34.1135 76.9882 33.6147 75.9051 32.7254C75.7401 32.5899 75.5043 32.3828 75.3813 32.265C75.2575 32.1463 75.1323 32.0498 75.1028 32.0498C75.0733 32.0498 74.811 31.8354 74.52 31.5739C74.2282 31.3116 73.8326 30.9645 73.6395 30.8017L73.2888 30.5055L73.5423 28.0543C73.6808 26.706 73.8819 24.4979 73.9888 23.1473C74.0956 21.7961 74.268 19.8068 74.3719 18.7267C74.9982 12.2239 74.489 11.4724 69.7538 11.9063C69.0443 11.9712 67.3865 12.1104 66.0699 12.2158C63.6931 12.4051 61.1748 12.6188 57.6817 12.9275L55.8641 13.0881L55.2909 12.4073C54.9755 12.0331 54.5961 11.5888 54.448 11.4201C54.2992 11.2513 53.9484 10.8365 53.667 10.4991C52.9943 9.69085 52.1632 8.71167 52.0093 8.54442C51.9415 8.47148 51.6372 8.10825 51.3336 7.73839C51.0301 7.36779 50.6713 6.93015 50.5357 6.76511C50.4009 6.60081 50.2071 6.37535 50.1062 6.26484C50.0045 6.15358 49.6199 5.7071 49.25 5.2724C48.8809 4.8377 48.4558 4.34406 48.3062 4.17534C48.1566 4.00662 47.6932 3.45403 47.2762 2.94713C46.8584 2.44097 46.468 2.00774 46.4083 1.9849C46.3486 1.9628 46.2992 1.89722 46.2992 1.83976C46.2992 1.67103 45.1381 0.528293 44.6879 0.253475C44.1449 -0.0773379 42.7347 -0.0972309 42.1858 0.21811ZM44.2259 11.7575C44.6408 12.2814 45.0283 12.7278 45.0872 12.7507C45.1462 12.7728 45.1941 12.842 45.1941 12.9039C45.1941 12.9658 45.2913 13.1176 45.4092 13.2414C45.9272 13.7836 46.4223 14.3996 46.4223 14.502C46.4223 14.5632 46.4672 14.6125 46.5217 14.6125C46.5763 14.6125 46.8909 14.9809 47.2209 15.4303C48.4352 17.0844 48.7313 17.2774 49.3237 16.8052C49.4003 16.744 49.9809 16.4272 50.6131 16.1008C51.246 15.7744 52.0675 15.3272 52.4381 15.1069C52.8094 14.8873 53.2235 14.6575 53.359 14.597C53.4946 14.5366 54.0479 14.2419 54.588 13.9428C55.1288 13.6437 55.6032 13.3954 55.643 13.3917C55.713 13.385 55.8398 13.7556 56.2052 15.0428C56.5699 16.3263 56.7769 17.0291 56.9832 17.6827C57.1004 18.054 57.2787 18.6346 57.3789 18.972C57.4798 19.3095 57.6611 19.9011 57.7819 20.2872L58.0015 20.9878L58.9961 20.923C59.5435 20.8869 60.5691 20.7771 61.2764 20.6791C61.983 20.5804 63.2259 20.4471 64.0393 20.3815C64.852 20.3166 65.6735 20.2297 65.8643 20.1892L66.2114 20.1148L66.1369 21.1396C66.0692 22.0709 65.9948 22.8209 65.5836 26.7082C65.3899 28.5324 65.3449 28.3947 66.2232 28.6562C66.6453 28.7815 67.2944 28.9819 67.6658 29.0998C68.474 29.3576 69.2402 29.5838 71.0431 30.0981C71.7858 30.3095 72.5447 30.5372 72.7289 30.605L73.0641 30.7273L72.5557 31.6645C72.2765 32.1802 71.8661 32.9339 71.6451 33.3392C71.4233 33.7444 71.0991 34.3522 70.923 34.6897C70.7477 35.0279 70.4788 35.5252 70.3263 35.7949C70.1737 36.0653 69.8672 36.6164 69.6447 37.0201L69.2402 37.7539L69.5887 38.0457C69.781 38.2063 70.0551 38.4362 70.1988 38.557C70.3425 38.6771 70.8376 39.072 71.2995 39.4345C71.7608 39.7963 72.2787 40.2236 72.4504 40.3828C72.6221 40.5419 72.9971 40.841 73.2837 41.0481C73.571 41.2551 73.8061 41.4695 73.8061 41.5262C73.8061 41.5822 73.8886 41.6279 73.9902 41.6279C74.0912 41.6279 74.1744 41.6721 74.1744 41.7266C74.1744 41.7812 74.5038 42.0707 74.9061 42.3713C75.7895 43.03 75.7784 42.9512 75.063 43.4964C74.7418 43.7417 74.341 44.0608 74.173 44.2052C73.4863 44.7938 73.3389 44.9154 72.4548 45.6205C71.9486 46.025 71.4786 46.4162 71.4115 46.4899C71.3438 46.5643 70.94 46.887 70.5141 47.2083C69.1688 48.2235 69.1946 48.1624 69.7118 49.1077C69.9557 49.5527 70.2997 50.1929 70.4766 50.5304C70.6526 50.8686 70.828 51.1721 70.8656 51.206C70.9032 51.2399 71.0446 51.4882 71.1794 51.7586C71.6473 52.6943 72.7333 54.7064 72.9006 54.9481C73.1488 55.3047 73.1157 55.3614 72.6088 55.4535C72.3553 55.4992 71.9545 55.606 71.718 55.6915C71.4823 55.7762 70.8464 55.9656 70.3064 56.1122C69.7656 56.2588 69.1305 56.4526 68.894 56.5425C68.6575 56.6324 68.1049 56.8011 67.6658 56.9175C67.2266 57.0339 66.6593 57.2056 66.4051 57.2984C66.1502 57.392 65.8327 57.4686 65.6986 57.4686C65.412 57.4686 65.4031 57.5976 65.5748 59.2258C65.8887 62.198 66.0684 63.9994 66.1392 64.8857L66.2165 65.8561L65.5601 65.7721C65.199 65.7257 64.295 65.6373 63.5523 65.5761C62.8097 65.5142 61.787 65.4089 61.2808 65.3418C60.7739 65.2748 59.8279 65.1841 59.1781 65.1407L57.9963 65.0611L57.8445 65.4707C57.7605 65.6962 57.6485 66.0734 57.5955 66.3099C57.5417 66.5464 57.4408 66.9053 57.3708 67.1079C57.3 67.3105 57.0444 68.1394 56.8012 68.9498C56.5588 69.7603 56.2855 70.6724 56.1941 70.9759C56.1028 71.2802 55.9635 71.7665 55.8847 72.0568C55.7182 72.6691 55.6489 72.6683 54.5268 72.0398C54.1555 71.8313 53.6582 71.5587 53.4217 71.4327C53.1851 71.3075 52.6053 70.9914 52.1323 70.7321C51.6593 70.472 50.8584 70.0476 50.3515 69.789C49.8453 69.5304 49.4018 69.2806 49.3672 69.2342C48.9273 68.6529 48.6164 68.8312 47.3963 70.3622C46.8312 71.071 46.3368 71.6788 46.297 71.7127C46.258 71.7466 45.897 72.1872 45.4947 72.6912C45.0931 73.1951 44.6813 73.6939 44.5803 73.8C44.4787 73.9061 44.2024 74.2517 43.9666 74.5685C43.3816 75.3509 43.4177 75.3649 42.3088 73.923C41.9707 73.4847 41.6119 73.0411 41.5102 72.9387C41.4092 72.8363 41.0224 72.3662 40.6518 71.8947C40.2805 71.4232 39.8937 70.9443 39.792 70.8301C39.6903 70.7159 39.3308 70.2642 38.9934 69.8258C38.6552 69.3875 38.3074 68.9984 38.2197 68.9609C38.0834 68.9019 36.9002 69.4221 36.7211 69.6195C36.688 69.6564 36.3557 69.8465 35.9844 70.0417C35.613 70.237 34.8947 70.6201 34.3885 70.8934C33.8816 71.1675 33.2465 71.502 32.9761 71.6368C32.7057 71.7724 32.4574 71.9139 32.4235 71.9514C32.3896 71.989 32.0728 72.1681 31.7199 72.35L31.0782 72.6794L30.9374 72.1658C30.8593 71.8829 30.7275 71.4305 30.6435 71.1601C30.474 70.6171 30.2788 69.9511 29.724 68.0288C29.5191 67.3201 29.2738 66.4912 29.1788 66.1869C29.0837 65.8833 28.971 65.4774 28.929 65.2858C28.8774 65.0508 28.7949 64.9587 28.6777 65.0036C28.5812 65.0405 28.0729 65.1031 27.5468 65.1422C27.0207 65.1819 25.8721 65.2917 24.9946 65.3875C22.0475 65.708 20.6167 65.8413 20.5754 65.7994C20.5526 65.7765 20.6145 65.039 20.7125 64.1608C21.4338 57.728 21.4507 57.4686 21.153 57.4686C21.0271 57.4686 20.68 57.392 20.3809 57.2992C20.0818 57.2056 19.5056 57.031 19.1004 56.9101C18.6952 56.79 18.0593 56.5955 17.688 56.4784C17.3166 56.362 16.6808 56.1697 16.2756 56.0511C15.8704 55.9332 15.331 55.7615 15.0761 55.6701C14.8212 55.5788 14.5139 55.5036 14.3931 55.5036C13.9466 55.5036 13.7433 55.2318 13.9341 54.8899C14.0284 54.7212 14.2524 54.3064 14.4322 53.9689C14.6112 53.6315 14.8838 53.1342 15.0378 52.8638C15.191 52.5934 15.5668 51.903 15.8726 51.3291C16.9173 49.3663 17.0735 49.0826 17.187 48.9463C17.5841 48.4682 17.4817 48.1771 16.6852 47.5221C16.2572 47.1707 15.7694 46.7647 15.6007 46.6203C15.432 46.4752 14.9066 46.0567 14.4336 45.6898C13.9614 45.3221 13.5024 44.95 13.4139 44.8616C13.3255 44.774 12.9115 44.4417 12.493 44.1241C11.2898 43.2098 11.0857 42.9836 11.3112 42.8134C12.0347 42.2667 13.1052 41.4305 13.2165 41.3251C13.2894 41.2551 13.5886 41.0046 13.8811 40.7681C14.1736 40.5316 14.4727 40.2826 14.5464 40.214C14.6193 40.1455 14.928 39.8972 15.2323 39.6622C15.5359 39.4279 15.8954 39.1332 16.0302 39.0087C16.1651 38.8834 16.5099 38.6123 16.7957 38.4045C17.4839 37.9065 17.52 37.7215 17.0846 36.9427C16.8827 36.5817 16.5777 36.01 16.406 35.6725C16.2351 35.3344 15.8166 34.5608 15.4762 33.9529C15.1365 33.3451 14.7733 32.682 14.6701 32.4794C14.5663 32.2767 14.3224 31.8104 14.1279 31.442C13.7256 30.6809 13.7344 30.6249 14.2819 30.5166C14.5007 30.4731 14.928 30.3589 15.2323 30.2624C15.5359 30.1659 16.3647 29.9198 17.0742 29.7157C17.783 29.5124 18.6952 29.2405 19.1004 29.1123C19.5056 28.9841 20.1834 28.7771 20.6071 28.6533L21.3778 28.4271L21.3092 27.568C21.226 26.5336 20.9335 23.6985 20.7007 21.6745C20.6071 20.8648 20.54 20.1936 20.5526 20.1833C20.5843 20.1546 22.6362 20.3609 24.9946 20.6283C26.1425 20.7594 27.4812 20.8958 27.9697 20.9326L28.8575 20.9996L28.9327 20.6615C28.9747 20.4751 29.0793 20.1015 29.1655 19.8318C29.2517 19.5614 29.4101 19.0361 29.5177 18.6648C29.8816 17.4056 30.4696 15.4134 30.6413 14.8586C30.7348 14.5543 30.8468 14.127 30.8903 13.9082C31.0008 13.3497 31.0951 13.3327 31.8326 13.7409C32.1914 13.9398 32.8995 14.3112 33.4056 14.5668C33.9125 14.8225 34.4032 15.0892 34.4968 15.1599C34.7083 15.3198 36.5635 16.3307 37.4299 16.7587C38.1881 17.133 38.2382 17.1153 38.9484 16.2091C39.2394 15.8378 39.5481 15.4893 39.6343 15.4355C39.7206 15.3817 39.7913 15.2572 39.7913 15.1592C39.7913 15.0612 39.8355 14.9809 39.8885 14.9809C39.9423 14.9809 40.1869 14.7186 40.4315 14.3981C40.6762 14.0769 41.0195 13.6488 41.1948 13.4462C41.3702 13.2436 41.9139 12.5702 42.4024 11.9498C43.4759 10.5868 43.3123 10.6045 44.2259 11.7575ZM204.273 19.1872C204.038 19.4554 204.03 19.7014 203.997 27.4774L203.964 35.492L203.323 35.0117C202.643 34.504 201.089 33.723 200.47 33.5801C200.267 33.5329 199.853 33.4232 199.549 33.3355C198.234 32.9575 196.166 32.7549 194.251 32.8168C192.161 32.8846 191.083 33.0717 189.296 33.6774C187.486 34.2904 184.951 36.0328 184.056 37.2795C183.841 37.5779 183.621 37.821 183.564 37.821C183.508 37.821 183.463 37.9042 183.463 38.0052C183.463 38.1069 183.421 38.1901 183.371 38.1901C183.285 38.1908 183.052 38.5408 182.632 39.2945C182.377 39.7528 181.54 41.7672 181.458 42.1193C181.418 42.2881 181.274 42.8406 181.136 43.3468C180.18 46.8693 180.28 54.1332 181.327 57.1658C181.421 57.4384 181.5 57.742 181.502 57.8414C181.504 57.9402 181.613 58.2422 181.744 58.5126C181.874 58.7823 181.983 59.0438 181.985 59.0932C181.999 59.3879 183.223 61.6417 183.371 61.6432C183.421 61.6432 183.463 61.7073 183.463 61.7847C183.463 62.7137 188.105 66.3099 189.304 66.3099C189.409 66.3099 189.594 66.3622 189.714 66.4263C190.89 67.0563 195.578 67.2633 198.137 66.7992C200.624 66.3475 201.763 65.9077 203.127 64.8717L203.943 64.2521L203.992 65.0051C204.077 66.3313 204.023 66.3099 207.312 66.3099C209.945 66.3099 210.124 66.2952 210.355 66.0646C210.599 65.8207 210.6 65.6549 210.6 42.3647V18.9109H207.558C204.557 18.9109 204.512 18.9146 204.273 19.1872ZM249.647 19.2822C249.246 19.683 249.333 59.8727 249.737 61.2276C250.932 65.2335 253.347 66.6783 258.85 66.6783C261.717 66.6783 261.49 66.9318 261.532 63.6878C261.575 60.4312 261.68 60.6198 259.777 60.5336C258.079 60.4562 257.406 60.2765 256.845 59.7489C255.975 58.9311 256.035 60.5012 256.035 38.6786V19.0332H252.965C250.045 19.0332 249.883 19.0457 249.647 19.2822ZM122.718 20.7292C122.167 20.9532 121.328 21.6281 121.328 21.8469C121.328 21.9206 121.28 21.9803 121.22 21.9803C121.084 21.9803 120.476 23.2402 119.916 24.682C119.799 24.9856 119.656 25.3451 119.6 25.48C119.545 25.6155 119.38 26.0296 119.234 26.4009C119.088 26.7723 118.923 27.1871 118.866 27.3219C118.809 27.4575 118.643 27.8716 118.497 28.2429C118.351 28.6142 118.038 29.3878 117.8 29.9625C117.562 30.5365 117.323 31.1163 117.267 31.2519C117.212 31.3867 117.047 31.8015 116.901 32.1729C116.756 32.5442 116.59 32.9583 116.532 33.0938C116.476 33.2287 116.311 33.6435 116.168 34.0148C116.024 34.3861 115.835 34.8555 115.749 35.0581C115.607 35.3882 115.203 36.3607 114.933 37.0231C114.878 37.1579 114.713 37.5727 114.566 37.944C114.419 38.3154 114.223 38.7935 114.13 39.0065C114.036 39.2194 113.96 39.4493 113.96 39.5185C113.96 39.587 113.879 39.8 113.779 39.9908C113.599 40.3356 113.5 40.5714 112.986 41.8733C112.839 42.2446 112.67 42.6594 112.61 42.7942C112.463 43.1258 111.659 45.1026 111.362 45.8644C111.231 46.2018 111.077 46.5886 111.021 46.7242C110.965 46.859 110.825 47.2178 110.71 47.5221C110.594 47.8257 110.428 48.2405 110.341 48.4431C110.041 49.1371 109.316 50.8988 109.053 51.5744C108.908 51.9457 108.744 52.3605 108.688 52.4954C108.632 52.6302 108.49 52.9897 108.372 53.2933C108.254 53.5976 108.086 54.0117 107.999 54.2143C107.746 54.8 107.008 56.6081 106.72 57.3456C106.575 57.7169 106.411 58.1317 106.355 58.2665C106.299 58.4021 106.157 58.7609 106.039 59.0652C105.921 59.3688 105.754 59.7836 105.667 59.9862C105.581 60.1888 105.415 60.6029 105.3 60.9072C105.184 61.2107 104.992 61.6808 104.872 61.9504C104.753 62.2208 104.477 62.8839 104.26 63.424C104.043 63.9648 103.781 64.6117 103.678 64.8614C103.575 65.1119 103.483 65.5267 103.475 65.7824L103.461 66.2488L106.47 66.2834C108.124 66.3018 109.593 66.2893 109.733 66.2554C110.032 66.1825 110.252 65.7581 111.202 63.424C111.449 62.8161 111.698 62.2083 111.756 62.0735C111.813 61.9386 111.978 61.5238 112.124 61.1525C112.27 60.7812 112.436 60.3664 112.493 60.2315C112.552 60.0967 112.742 59.6266 112.916 59.1875C113.091 58.7484 113.284 58.2791 113.344 58.1442C113.827 57.0619 114.329 55.8006 114.329 55.6657C114.329 55.5309 115.984 55.5081 123.792 55.5338L133.254 55.5655L133.42 55.872C133.511 56.0415 133.789 56.6766 134.038 57.2844C134.287 57.8923 134.561 58.5554 134.648 58.758C134.734 58.9606 134.901 59.3747 135.019 59.6789C135.366 60.5734 135.415 60.6957 135.667 61.2755C135.8 61.5791 136.031 62.1317 136.182 62.503C136.334 62.8743 136.528 63.3444 136.613 63.547C136.699 63.7496 136.952 64.3575 137.175 64.8975C137.814 66.4462 137.448 66.3188 141.15 66.2812C145.005 66.2422 144.862 66.416 143.494 63.424C143.401 63.2214 143.129 62.5524 142.888 61.9372C142.647 61.3212 142.336 60.5476 142.196 60.2175C141.871 59.4498 141.788 59.2472 141.527 58.5738C141.409 58.2695 141.242 57.8554 141.156 57.6528C141.069 57.4502 140.904 57.0354 140.788 56.7318C140.672 56.4276 140.532 56.0687 140.475 55.9339C140.419 55.7983 140.226 55.329 140.048 54.8899C139.87 54.4508 139.654 53.9262 139.568 53.7236C139.482 53.521 139.315 53.1062 139.196 52.8026C139.077 52.4983 138.909 52.0843 138.822 51.8816C138.736 51.679 138.57 51.2642 138.455 50.9607C138.339 50.6564 138.199 50.2976 138.143 50.162C138.088 50.0272 137.841 49.4193 137.595 48.8115C137.033 47.4241 136.688 46.5827 136.488 46.1097C136.402 45.9071 136.237 45.493 136.12 45.1888C136.005 44.8852 135.834 44.4571 135.741 44.2376C135.648 44.018 135.496 43.6585 135.404 43.4389C135.311 43.2194 135.139 42.7913 135.022 42.4877C134.774 41.8431 134.403 40.9361 134.068 40.1544C133.803 39.5347 133.727 39.3476 133.427 38.5578C133.311 38.2542 133.145 37.8394 133.059 37.6368C132.972 37.4342 132.818 37.0474 132.717 36.7777C132.525 36.2708 131.745 34.3589 131.464 33.7076C131.377 33.505 131.211 33.0909 131.094 32.7866C130.978 32.4823 130.813 32.0682 130.726 31.8656C130.64 31.663 130.471 31.2482 130.352 30.9447C130.234 30.6404 130.067 30.2263 129.983 30.0237C129.899 29.8211 129.68 29.2722 129.496 28.8043C129.312 28.3365 129.117 27.8664 129.064 27.7603C129.011 27.6542 128.871 27.319 128.754 27.0154C128.638 26.7111 128.471 26.2971 128.384 26.0944C128.298 25.8918 128.132 25.477 128.017 25.1735C127.901 24.8692 127.76 24.5104 127.704 24.3748C127.647 24.24 127.455 23.7714 127.275 23.3337C126.324 21.01 124.538 19.9895 122.718 20.7292ZM124.195 33.0017C124.319 33.3222 124.496 33.7503 124.586 33.9529C124.678 34.1555 125.008 34.9571 125.321 35.7337C125.635 36.5103 126.111 37.6707 126.381 38.3124C127.002 39.7919 126.99 39.7602 127.524 41.0753C128.158 42.6373 128.905 44.4439 129.263 45.2809C129.666 46.2261 129.782 46.5091 129.982 47.0307C130.099 47.335 130.251 47.6901 130.32 47.8205C130.388 47.9509 130.488 48.2 130.54 48.3731C130.592 48.547 130.674 48.7857 130.722 48.9036C130.805 49.1069 130.433 49.1187 123.919 49.1187C116.521 49.1187 116.81 49.1438 117.148 48.5337C117.213 48.4166 117.468 47.8227 117.715 47.2149C117.962 46.6071 118.428 45.4746 118.752 44.6981C119.075 43.9208 119.541 42.7883 119.788 42.1805C120.035 41.5727 120.282 40.9648 120.338 40.83C120.393 40.6944 120.536 40.3356 120.654 40.0313C120.773 39.7278 120.982 39.2304 121.12 38.9262C121.257 38.6226 121.413 38.2631 121.465 38.1282C121.616 37.7363 122.443 35.7109 122.63 35.2732C123 34.4104 123.147 34.0546 123.354 33.5234C123.86 32.2156 123.883 32.2016 124.195 33.0017ZM276.235 32.7372C274.653 32.8588 271.913 33.5329 270.464 34.1577C269.402 34.6153 268.174 35.229 268.069 35.3535C268.035 35.394 267.862 35.5024 267.684 35.5937C267.178 35.8545 266.504 36.5029 266.411 36.8204C266.327 37.1034 266.651 38.1879 266.821 38.1908C266.866 38.1916 267.012 38.4266 267.147 38.7132C267.281 38.9991 267.424 39.2614 267.466 39.2945C267.508 39.3284 267.774 39.7808 268.058 40.2995C268.797 41.6515 269.1 41.6935 270.685 40.6657C271.518 40.1264 271.807 39.9731 272.858 39.5193C274.473 38.8201 275.935 38.5659 278.323 38.5673C279.404 38.5681 280.509 38.616 280.778 38.6734C281.049 38.7316 281.559 38.8377 281.912 38.9099C284.621 39.4655 286.357 41.7473 286.22 44.575L286.182 45.373L280.41 45.4452C273.355 45.5336 272.401 45.6802 269.44 47.1397C263.352 50.1384 262.435 59.8889 267.807 64.4879C268.188 64.8135 268.538 65.0803 268.585 65.081C268.632 65.0817 268.916 65.2475 269.217 65.4501C269.517 65.6527 269.804 65.8185 269.854 65.8185C269.904 65.8185 270.173 65.9224 270.45 66.0484C273.373 67.3797 279.019 67.4217 282.13 66.1353C283.316 65.6446 285.015 64.6529 285.015 64.451C285.015 64.3928 285.075 64.345 285.147 64.345C285.22 64.345 285.477 64.1239 285.72 63.8543C286.2 63.3194 286.366 63.2472 286.366 63.5743C286.366 65.9777 287.741 66.6842 292.414 66.6805L295.084 66.6783V64.1762C295.084 61.305 295.129 61.42 293.981 61.2844C292.655 61.1282 292.762 61.9541 292.711 51.5132C292.661 41.7207 292.61 41.0459 291.736 38.8038C289.926 34.1614 284.638 32.0918 276.235 32.7372ZM228.406 32.8448C228.304 32.8698 227.78 32.9524 227.24 33.029C225.203 33.3178 222.53 34.2535 221.766 34.9446C221.659 35.0411 221.531 35.12 221.48 35.12C221.348 35.12 219.924 36.2273 219.587 36.592C219.43 36.7615 219.067 37.149 218.781 37.4526C218.04 38.238 217.45 39.1811 216.549 41.0142C214.535 45.1136 214.341 53.6646 216.162 58.1442C216.786 59.6797 217.875 61.6439 218.102 61.6439C218.163 61.6439 218.214 61.7058 218.214 61.7824C218.214 61.963 220.228 63.9766 220.408 63.9766C220.485 63.9766 220.547 64.0252 220.547 64.0841C220.547 64.4378 223.682 65.9644 225.459 66.4772C228.228 67.2751 232.597 67.2707 235.529 66.4676C237.163 66.0189 239.21 65.2085 239.559 64.871C239.648 64.7841 239.771 64.7133 239.831 64.7133C240.153 64.7133 242.011 63.2796 243.111 62.1825C244.816 60.482 244.824 60.3553 243.296 58.9842C242.706 58.4544 242.079 57.8834 241.903 57.714C240.533 56.401 240.314 56.4032 238.966 57.7427C235.871 60.818 230.887 61.7861 226.63 60.1402C226.092 59.9317 225.595 59.7165 225.525 59.6605C225.455 59.6053 225.224 59.4211 225.012 59.2509C224.799 59.0814 224.592 58.9422 224.551 58.9422C224.237 58.9422 222.857 57.1231 222.451 56.1726C222.113 55.3813 221.643 53.7398 221.708 53.5718C221.755 53.448 224.033 53.4163 232.906 53.4163C241.194 53.4163 244.148 53.3788 244.448 53.2705C244.997 53.0723 245.021 52.894 244.928 49.7546C244.825 46.3403 244.601 44.729 243.91 42.4258C243.605 41.4076 242.929 39.9267 242.442 39.2106C242.287 38.9807 242.16 38.7397 242.16 38.6756C242.16 38.6108 242.108 38.5578 242.045 38.5578C241.982 38.5578 241.896 38.4502 241.855 38.3183C241.456 37.0636 237.743 34.4119 235.242 33.5956C233.54 33.04 229.452 32.5913 228.406 32.8448ZM161.789 33.0629C159.199 33.4136 156.574 34.7508 155.045 36.4985L154.483 37.1417V35.5812V34.0207L154.107 33.8269C153.505 33.5153 148.598 33.611 148.233 33.9411L147.974 34.1754V50.0397C147.974 65.2527 147.984 65.9121 148.199 66.1066C148.528 66.4042 153.993 66.4138 154.29 66.1169C154.462 65.9452 154.483 64.8975 154.483 56.4379C154.483 45.2595 154.485 45.2403 155.567 42.9784C157.938 38.0236 166.356 37.7517 168.721 42.554C169.787 44.7194 169.824 45.1829 169.829 56.3671C169.832 64.6691 169.854 65.7957 170.023 66.0373C170.212 66.3063 170.255 66.3099 173.124 66.3063L176.034 66.3026L176.253 66.0005C176.54 65.6063 176.515 44.6914 176.225 43.1626C175.827 41.0547 175.134 39.2481 174.171 37.804C173.625 36.984 172.258 35.4884 172.055 35.4884C171.996 35.4884 171.915 35.4051 171.875 35.3042C171.836 35.2025 171.72 35.12 171.617 35.12C171.514 35.12 171.429 35.0684 171.429 35.005C171.429 34.9424 171.318 34.8555 171.184 34.8127C171.05 34.77 170.868 34.6698 170.783 34.5895C170.499 34.3265 169.524 33.8954 168.113 33.4106C166.843 32.9737 163.716 32.8021 161.789 33.0629ZM198.198 38.8377C198.637 38.9976 199.162 39.2164 199.365 39.324C199.567 39.4323 199.908 39.6121 200.123 39.7241C201.398 40.3909 203.062 42.5725 203.754 44.4837C204.174 45.6456 204.183 53.9969 203.766 55.2657C201.436 62.3446 192.331 63.6133 188.405 57.4045C188.32 57.2712 188.195 57.0236 188.126 56.8549C188.057 56.6862 187.952 56.4371 187.892 56.3023C187.251 54.8553 187.025 53.1975 187.029 49.9778C187.035 45.3339 187.718 43.0698 189.787 40.8477C191.744 38.7449 195.487 37.8505 198.198 38.8377ZM231.783 38.8621C235.726 39.492 238.055 42.0737 238.471 46.2755C238.664 48.2309 239.716 48.0202 229.956 47.9834L221.591 47.9517L221.631 46.9695C221.69 45.5107 222.446 43.0609 223.087 42.2431C225.291 39.4389 228.234 38.2947 231.783 38.8621ZM286.049 50.789C286.344 50.9025 286.336 55.6598 286.039 56.5476C285.574 57.9409 284.589 59.2914 283.603 59.8889C282.808 60.3715 281.732 60.7929 280.574 61.0751C278.805 61.5076 274.376 61.2313 273.786 60.653C273.722 60.5896 273.595 60.5388 273.504 60.5388C273.158 60.5388 271.702 59.3363 271.497 58.881C271.435 58.7454 271.337 58.5524 271.277 58.4507C270.881 57.7773 270.771 57.2719 270.771 56.1395C270.771 52.7186 272.826 51.0926 277.463 50.8428C279.53 50.7315 285.797 50.6925 286.049 50.789Z" fill="#FFD700"/>
</g>
<defs>
<clipPath id="clip0_115_370">
<rect width="294.711" height="86" fill="white" transform="translate(0.374023)"/>
</clipPath>
</defs>
</svg>
