<svg width="250" height="86" viewBox="0 0 250 86" fill="none" xmlns="http://www.w3.org/2000/svg">
<g clip-path="url(#clip0_115_361)">
<path d="M74.205 52.4225C73.6 52.5775 73.3 52.98 73.19 53.585C72.6725 56.4675 72.0625 59.335 71.94 62.27C71.8449 63.6373 71.9672 65.011 72.3025 66.34C72.935 68.59 74.365 70.14 76.645 70.59C80.8125 71.415 84.645 70.6825 87.475 67.2525C89.6025 64.67 90.475 61.6975 89.1275 58.3925C88.985 58.0425 88.9075 57.6825 89.3775 57.5875C90.9 57.28 92.43 56.8375 93.975 57.48C95.7475 58.23 96.62 59.625 96.64 61.48C96.6725 64.91 95.14 67.6475 92.5225 69.745C89.355 72.2875 85.6875 73.77 81.6925 74.4725C78.8525 74.9725 75.995 74.8974 73.1525 74.6025C69.11 74.1825 65.305 73.04 62.0575 70.4575C58.5575 67.685 56.91 63.9575 56.6 59.6125C56.49 58.095 56.5825 56.565 56.41 55.01C55.89 56.26 55.385 57.51 54.8475 58.76C53 63.02 50.545 66.84 46.83 69.75C44.4078 71.6576 41.5703 72.968 38.5475 73.575C38.3586 73.6009 38.1681 73.6143 37.9775 73.615C37.5875 73.425 37.1975 73.6275 36.805 73.6275C28.905 73.6075 21.0058 73.6075 13.1075 73.6275C12.1575 73.6275 11.21 73.6475 10.1475 73.575C10.325 73.3125 10.4925 73.0925 10.4175 72.825C12.69 69.05 13.4775 64.81 14.305 60.575C15.555 54.11 16.8675 47.6525 18.145 41.19C18.5725 39.03 18.9725 36.865 19.395 34.7025C19.4395 34.588 19.4746 34.4701 19.5 34.35C20.245 30.705 20.9883 27.06 21.73 23.415C22.1114 22.207 22.1184 20.9119 21.75 19.7C21.63 19.095 21.5 18.49 21.3875 17.885C21.275 17.2 21.6075 17.065 22.2375 17.07C26.7825 17.0925 31.33 17.07 35.875 17.07C36.9475 17.07 36.9475 17.07 36.9825 18.13C36.9788 18.3207 36.9638 18.511 36.9375 18.7C36.1225 22.8666 35.305 27.0333 34.485 31.2C34.235 32.4275 34.0175 33.6575 33.76 35.015C34.61 34.5 35.3225 34.06 36.0425 33.6325C39.225 31.7375 42.5425 30.36 46.3725 30.62C50.955 30.935 54.3375 33.025 56.3025 37.235C57.72 40.275 58.015 43.5049 57.8025 46.8049C57.7675 47.3799 57.7375 47.955 57.705 48.5275C58.106 47.7329 58.4664 46.9185 58.785 46.0875C59.8325 43.6199 61.3 41.405 62.9125 39.2775C63.0003 39.2041 63.0838 39.1256 63.1625 39.0425C65.797 35.9576 69.1865 33.6087 73 32.225C77.2376 30.6252 81.7877 30.0262 86.295 30.475C88.6375 30.725 90.8275 31.4625 92.9475 32.4525L92.96 32.4675C94.625 33.4275 96.2325 34.4675 97.55 35.895C99.635 38.16 100.52 40.895 100.68 43.895C100.796 46.4651 100.564 49.0391 99.9925 51.5475C99.9175 51.89 99.885 52.2825 99.42 52.36C99.353 52.3091 99.2762 52.2728 99.1944 52.2535C99.1126 52.2341 99.0276 52.232 98.945 52.2475H74.5225C74.4077 52.2538 74.2934 52.2663 74.18 52.285L74.205 52.4225ZM74.6525 48.635L74.6075 48.7525C74.6687 48.7756 74.7325 48.7915 74.7975 48.8H84.1575C84.3025 48.8 84.4475 48.8 84.5325 48.645C85.32 48.395 85.1675 47.6625 85.2975 47.09C86.0629 43.8005 86.4893 40.4413 86.57 37.065C86.6025 35.135 85.32 33.8775 83.405 33.815C80.705 33.7175 78.8375 34.99 77.625 37.315C75.91 40.6 75.025 44.1475 74.35 47.7625C74.285 48.11 74.3025 48.4275 74.6525 48.635ZM28.5 69.825C28.9575 69.825 29.4125 69.825 29.87 69.825C30.0394 69.8151 30.2072 69.7857 30.37 69.7375C34.68 68.5875 37.6925 66.0075 38.9875 61.6775C40.45 56.8025 41.465 51.82 42.4175 46.8225C42.8706 44.4081 42.688 41.9174 41.8875 39.595C41.7373 39.0567 41.4267 38.577 40.997 38.2197C40.5674 37.8624 40.0391 37.6445 39.4825 37.595C37.8275 37.37 36.4075 37.905 35.1975 39.0325C33.0025 41.075 31.825 43.67 31.2375 46.5475C30.31 51.085 29.435 55.63 28.5475 60.175C27.9625 63.175 27.4025 66.16 26.7975 69.1475C26.695 69.6675 26.7975 69.87 27.3475 69.8375C27.73 69.805 28.115 69.825 28.5 69.825Z" fill="#FFD700"/>
<path d="M150.57 74.75C148.07 74.92 145.592 75.095 143.09 74.925C138.57 74.6175 134.202 73.75 130.187 71.55C128.642 70.705 127.242 69.6475 126.392 68.035C125.097 65.5775 125.75 62.58 127.617 60.3825C131.067 56.33 138.617 55.6175 143.3 59.21C143.858 59.6253 144.362 60.109 144.8 60.65C145.287 61.2625 145.26 61.6125 144.657 62.1125C144.055 62.6125 143.407 63.075 142.907 63.71C140.71 66.5025 141.887 70.3225 145.297 71.3C148.275 72.1525 150.757 71.4225 152.877 69.0775C156.785 64.75 159.157 59.6625 160.627 54.0975C160.957 52.8475 161.212 51.575 161.465 50.3075C161.547 49.8975 161.697 49.3375 161.327 49.1C161.025 48.905 160.642 49.3175 160.327 49.535C157.28 51.685 153.985 53.315 150.327 54.105C145.887 55.0625 141.475 55.105 137.147 53.46C132.13 51.5625 128.475 46.4075 128.337 41.055C128.313 38.3146 128.757 35.5902 129.652 33C129.717 32.7975 129.76 32.585 129.812 32.3775C129.905 32.1875 130.01 32 130.087 31.8025C131.017 29.4346 132.348 27.245 134.022 25.33C137.37 21.515 141.637 19.125 146.327 17.39C149.176 16.3738 152.152 15.758 155.17 15.56C158.907 15.265 162.595 15.4625 166.23 16.4525C167.995 16.979 169.703 17.6817 171.327 18.55C171.403 18.6362 171.487 18.7149 171.577 18.785C173.511 19.9951 175.241 21.5028 176.705 23.2525C178.087 24.8675 179.09 26.715 179.972 28.6375C180.167 29.27 180.352 29.9075 180.565 30.5375C181.025 31.8975 181.102 33.3325 181.405 34.725C181.42 35.2416 181.437 35.7583 181.455 36.275V38.4325C181.455 38.9125 181.427 39.3925 181.412 39.8725C181.295 40.7975 181.207 41.7275 181.05 42.645C180.815 44.035 180.532 45.4175 180.27 46.8025C180.253 46.815 180.242 46.8332 180.238 46.8536C180.235 46.8739 180.239 46.895 180.25 46.9125C180.117 47.1418 180.036 47.3981 180.015 47.6625L179.97 47.9375C179.398 49.5741 178.825 51.2125 178.25 52.8525C177.843 53.5845 177.489 54.3448 177.19 55.1275L177.207 55.11L177.107 55.295C177.099 55.299 177.091 55.3046 177.085 55.3116C177.079 55.3186 177.074 55.3267 177.071 55.3356C177.068 55.3445 177.067 55.3538 177.068 55.3632C177.068 55.3725 177.071 55.3816 177.075 55.39C176.642 56.047 176.266 56.7394 175.95 57.46C175.604 57.8982 175.311 58.3766 175.08 58.885L173.047 61.76C172.606 62.1948 172.213 62.6759 171.875 63.195L170.535 64.6425C170.526 64.6414 170.516 64.6423 170.507 64.6451C170.498 64.6478 170.49 64.6523 170.482 64.6584C170.475 64.6645 170.469 64.672 170.465 64.6804C170.461 64.6888 170.458 64.698 170.457 64.7075C170.167 64.9303 169.914 65.1978 169.707 65.5L166.69 68.115C164.917 69.3612 163.081 70.5152 161.19 71.5725L158.595 72.7325C157.66 73.03 156.727 73.3325 155.792 73.625C154.11 74.14 152.327 74.375 150.57 74.75ZM165.86 29.8675C165.87 27.9647 165.665 26.0669 165.25 24.21C164.767 22.0425 163.695 20.26 161.5 19.46C159.772 18.8425 158 18.96 156.265 19.51C153.687 20.3125 151.982 22.145 150.552 24.3125C148.525 27.3825 147.39 30.7825 146.685 34.37C146.022 37.745 145.935 41.0825 146.845 44.4175C147.44 46.615 148.89 48.395 151.345 48.6675C154.43 49 157.127 48.065 159.292 45.9175C163.75 41.5175 165.79 36.08 165.86 29.8575V29.8675Z" fill="#FFD700"/>
<path d="M104.853 40.44L104.915 40.165C105.165 38.875 105.443 37.5875 105.665 36.29C105.795 35.56 105.538 35.29 104.803 35.3725C104.255 35.4337 103.703 35.4487 103.153 35.4175C102.7 35.3875 102.633 35.19 102.808 34.805C102.942 34.5249 103.138 34.2788 103.38 34.085C104.438 33.1725 105.653 32.4825 106.765 31.6475C109.23 29.8025 111.105 27.3975 113.05 25.05C115.453 22.16 118.025 19.4575 121.338 17.58C123.225 16.51 125.185 15.62 127.385 15.425C127.743 15.3875 128.103 15.3875 128.46 15.425C128.773 15.4625 129.278 15.41 129.308 15.7725C129.336 15.9892 129.302 16.2095 129.21 16.4078C129.118 16.6061 128.972 16.7741 128.788 16.8925C128.438 17.0991 128.096 17.3208 127.763 17.5575C124.915 19.5575 123.365 22.43 122.34 25.6475C121.857 27.2087 121.455 28.7942 121.138 30.3975C120.968 31.2225 120.975 31.225 121.848 31.225C123.348 31.225 124.825 31.225 126.313 31.225C127.043 31.225 127.168 31.39 127.023 32.0825C126.813 33.0825 126.615 34.1025 126.405 35.11C126.365 35.2925 126.343 35.5 126.103 35.555C124.38 35.555 122.658 35.555 120.935 35.555C120.725 35.555 120.435 35.4125 120.323 35.7525C119.85 36.15 119.86 36.7375 119.755 37.2525C118.795 42.1725 117.845 47.0891 116.905 52.0025C116.325 55.0175 115.803 58.0425 115.113 61.035C114.963 61.6875 114.753 62.3275 114.613 62.9825C114.255 64.64 115.128 65.76 116.82 65.86C117.925 65.925 118.955 65.5875 119.985 65.27C120.463 65.125 120.693 65.125 120.548 65.755C119.315 71.0925 114.495 74.93 109.088 74.725C105.775 74.5975 102.958 73.41 101.208 70.3825C100.038 68.36 100.02 66.215 100.458 63.97C101.958 56.2475 103.375 48.515 104.823 40.785C104.84 40.6707 104.85 40.5555 104.853 40.44Z" fill="#FFD700"/>
<path d="M174.5 85.73L174.082 85.7025C173.662 85.5452 173.219 85.4549 172.77 85.435L172.71 85.4025H172.645C172.395 85.1525 171.842 85.3775 171.777 84.84L171.935 84.69L172.132 84.54C172.141 84.543 172.151 84.544 172.16 84.5429C172.169 84.5418 172.178 84.5387 172.186 84.5336C172.194 84.5286 172.201 84.5218 172.206 84.5138C172.211 84.5058 172.214 84.4968 172.215 84.4875C172.41 84.313 172.605 84.1388 172.8 83.965C173.166 83.7604 173.47 83.4607 173.68 83.0975C173.996 82.879 174.249 82.5805 174.412 82.2325H174.4C174.439 82.2263 174.475 82.2053 174.5 82.1737C174.524 82.1421 174.536 82.1023 174.532 82.0625C175.167 81.346 175.656 80.5119 175.97 79.6075C176.054 79.4933 176.129 79.372 176.192 79.245C177.312 76.495 177.692 73.56 178.252 70.67L178.285 70.4025C178.604 69.2616 178.841 68.0995 178.995 66.925C179.14 66.8125 179.107 66.655 179.097 66.5025L179.142 66.0775C179.498 64.7457 179.776 63.3942 179.975 62.03L179.99 61.8825C180.177 61.3753 180.28 60.8406 180.292 60.3C180.497 59.8491 180.597 59.3576 180.585 58.8625C181.055 56.955 181.45 55.0325 181.735 53.0875L181.767 53.0575L181.75 53.015C182.202 51.1325 182.605 49.24 182.877 47.32C182.895 47.3058 182.906 47.2858 182.91 47.2637C182.914 47.2417 182.909 47.219 182.897 47.2C183.37 45.338 183.747 43.453 184.027 41.5525C184.045 41.5386 184.057 41.5186 184.061 41.4964C184.064 41.4741 184.06 41.4513 184.047 41.4325C184.228 40.9665 184.326 40.4723 184.335 39.9725C184.397 39.77 184.475 39.57 184.525 39.3625C184.997 37.3825 185.135 35.415 184.33 33.4775C184.235 32.75 183.712 32.1775 183.58 31.46L183.745 31.27L185.19 31.1675H196.867H199.03C199.612 31.1675 199.95 31.405 199.882 32.0375C199.632 32.565 199.632 33.1475 199.51 33.705C199.145 35.5525 198.81 37.405 198.462 39.2575C198.445 39.2733 198.434 39.2947 198.43 39.318C198.427 39.3414 198.432 39.3651 198.445 39.385C198.26 39.848 198.162 40.3413 198.157 40.84C197.597 43.1775 197.19 45.545 196.752 47.9075L196.715 48.335C196.44 49.2314 196.252 50.1524 196.155 51.085L196.142 51.2275C195.975 51.6409 195.884 52.0815 195.875 52.5275L195.845 52.7775C195.478 54.1734 195.196 55.5901 195 57.02C195 57.0725 195 57.1225 194.982 57.175C194.706 58.1132 194.516 59.0747 194.415 60.0475C194.397 60.0625 194.385 60.0834 194.382 60.1063C194.378 60.1292 194.383 60.1527 194.395 60.1725C194.221 60.59 194.131 61.0377 194.13 61.49L194.115 61.6325C193.54 63.9675 193.135 66.335 192.702 68.7L192.672 68.985C192.433 69.8373 192.252 70.7052 192.132 71.5825C192.117 71.7225 192.105 71.86 192.09 72C191.59 73.855 191.34 75.75 190.957 77.6375C190.939 77.6493 190.927 77.6674 190.921 77.6883C190.916 77.7092 190.919 77.7312 190.93 77.75C190.782 77.9739 190.696 78.2324 190.68 78.5C190.671 78.504 190.663 78.5098 190.656 78.5171C190.649 78.5243 190.644 78.5328 190.64 78.5421C190.637 78.5514 190.635 78.5613 190.635 78.5713C190.636 78.5812 190.638 78.591 190.642 78.6C188.772 82.565 185.175 84.065 181.287 85.1275C180.287 85.3975 179.287 85.5225 178.265 85.715L176.515 85.785H175.687L174.5 85.73Z" fill="#FFD700"/>
<path d="M240.385 39.875C240.385 40.8267 240.389 41.7809 240.397 42.7375C239.707 47.8925 238.595 52.9725 237.647 58.08C237.225 60.33 236.82 62.6025 236.397 64.86C235.897 67.5175 236.217 70.165 236.437 72.815C236.51 73.7075 236.437 73.815 235.52 73.815C231.608 73.815 227.697 73.82 223.787 73.83C223.237 73.83 222.685 73.86 222.135 73.875C221.18 73.6425 221.047 73.48 220.95 72.4775C220.925 72.1926 220.882 71.9096 220.822 71.63C220.647 70.8525 220.42 70.7175 219.75 71.13C218.3 71.995 216.847 72.8575 215.332 73.6075L215.19 73.645L214.62 73.895L211.87 74.745H211.805L211.747 74.7775C211.203 74.7989 210.664 74.8887 210.142 75.045L209.297 75.0875H207.707L206.437 75.0375C205.913 74.88 205.371 74.7901 204.825 74.77L204.767 74.7375L204.702 74.75C203.577 74.365 202.427 74.045 201.382 73.445C199.202 72.2097 197.554 70.2142 196.752 67.84C196.73 67.3949 196.634 66.9565 196.47 66.5425L196.45 66.255C196.375 64.945 196.562 63.6525 196.745 62.3625C196.753 62.3575 196.76 62.3507 196.766 62.3427C196.772 62.3347 196.776 62.3257 196.778 62.3161C196.78 62.3065 196.78 62.2966 196.778 62.287C196.776 62.2773 196.773 62.2682 196.767 62.26C197.17 61.1375 197.49 59.9875 198.04 58.9175C199.017 57.015 200.425 55.4675 201.947 54.005L202.125 53.8725L202.25 53.7475L205.145 51.72L206.942 50.835C208.837 49.9 210.857 49.2925 212.822 48.535C212.829 48.5397 212.837 48.5426 212.846 48.5435C212.854 48.5445 212.863 48.5435 212.871 48.5406C212.879 48.5377 212.886 48.533 212.892 48.5268C212.898 48.5206 212.902 48.5132 212.905 48.505C213 48.5041 213.095 48.4915 213.187 48.4675C216.532 47.3 219.88 46.14 223.157 44.7875C224.406 44.2862 225.42 43.3341 226 42.12C226.802 40.465 226.797 38.73 226.325 36.995C226.125 36.2625 225.575 35.795 224.857 35.525C223.876 35.1779 222.821 35.0985 221.8 35.295C219.887 35.605 218.88 36.87 218.93 38.815C218.947 39.3875 219.067 39.955 219.115 40.5275C219.192 41.435 218.845 42.11 217.992 42.5C216.157 43.3425 214.3 44.13 212.257 44.28C209.737 44.465 207.587 43.7275 206.202 41.4875C204.26 38.345 203.895 34.9375 204.667 31.3675C204.777 30.855 205.032 30.7275 205.477 31.0075C207.045 31.9925 208.795 32.2325 210.59 32.1725C214.042 32.0282 217.483 31.6793 220.895 31.1275C224.162 30.6275 227.432 30.495 230.715 31.02C232.481 31.3412 234.22 31.7975 235.917 32.385C237.797 33.385 239.182 34.8275 239.822 36.9175C240.115 37.8875 240.197 38.89 240.385 39.875ZM224.562 48.6975C223.187 49.24 221.89 49.6625 220.735 50.4125C218.025 52.1933 215.695 54.4934 213.88 57.18C212.207 59.6125 211.212 62.2 211.695 65.2225C211.99 67.0675 213.482 68.65 215.217 68.8025C216.407 68.9075 217.402 68.33 218.39 67.8025C220.152 66.84 221.44 65.465 221.765 63.4125C222.312 59.9525 223.082 56.535 223.735 53.095C224 51.6575 224.275 50.2275 224.562 48.6975Z" fill="#FFD700"/>
<path d="M194.747 26.1025C202.068 26.1025 208.002 20.1681 208.002 12.8475C208.002 5.527 202.068 -0.407471 194.747 -0.407471C187.427 -0.407471 181.492 5.527 181.492 12.8475C181.492 20.1681 187.427 26.1025 194.747 26.1025Z" fill="#FFD700" stroke="#FFD700" stroke-width="0.669305"/>
<path d="M189.832 0.539984L190.302 1.68249M182.522 12.7625C183.235 14.44 184.897 14.895 186.375 15.5325M187.922 3.88499C184.65 4.67499 182.545 8.11499 182.647 8.13499M191.042 5.45998C190 7.28248 189.842 9.68498 190.377 12.53M194.602 0.46498C195.742 -0.0175205 197.572 0.0574847 199.807 0.587485M188.5 20.75C187.965 21.33 187.65 22.3025 187.392 23.3725M195.822 3.41498C197.212 4.16498 199.765 5.44999 201.375 7.47999M193.75 20.315C195.029 21.9323 196.838 23.0462 198.857 23.46M201.292 12.3625C199.262 13.6177 197.093 14.6321 194.827 15.385M205 6.74998C204.857 5.44748 204.25 4.19248 203.532 2.94498M206.782 11.965C207.063 12.0947 207.314 12.2798 207.521 12.5092C207.729 12.7387 207.887 13.0077 207.987 13.3M204.687 14.9475C204.885 16.8125 204.125 19.0375 203.362 21.27" stroke="#FFD700" stroke-width="0.669305"/>
<path d="M189.898 0.662486C191.644 0.302998 193.429 0.164414 195.21 0.249988C195.695 1.14999 195.878 2.36499 196.108 3.57249C194.043 4.39249 192.065 5.21249 190.783 5.96999C189.418 5.26999 188.668 5.10499 187.08 4.11499C187.605 2.86749 188.558 1.71749 189.898 0.662486ZM205 6.51998C205.885 8.36748 206.75 10.2175 207.1 12.1075C206.268 13.3575 205.403 14.75 204.7 15.3725C203.563 14.7025 202.2 13.6075 200.875 12.6225C200.905 10.4875 200.985 8.90499 201.045 7.12249C202.46 6.76749 203.823 6.47748 205 6.51998ZM181.75 15.375C181.23 12.6741 181.563 9.87815 182.703 7.37499L183.023 7.46249C182.588 9.34499 182.258 11.2125 182.693 12.9125C182.216 13.648 181.974 14.5113 182 15.3875L181.75 15.375ZM190.293 12.055C192.043 13.1275 193.75 14.1725 195.4 15.2C195.253 17.1425 194.628 18.9 194.118 20.7C192.303 21.28 190.288 20.88 188.368 20.9025C186.945 18.885 186.723 17.1825 186.165 15.4025C187.392 14.1198 188.775 12.9953 190.28 12.055H190.293ZM204.463 21.8525C202.554 23.9132 200.04 25.3139 197.283 25.8525L196.693 25.585C197.393 25.1025 197.903 24.285 198.323 23.3075C199.755 23.2175 201.69 21.88 203.535 20.765C203.887 21.0856 204.194 21.4513 204.45 21.8525H204.463ZM189.445 24.9775C187.68 24.2018 186.105 23.0509 184.83 21.605C185.705 22.4025 186.43 23.105 187.463 23.1675C187.568 23.665 188.08 24.2275 189.433 24.9775H189.445Z" fill="#FFD700"/>
</g>
<defs>
<clipPath id="clip0_115_361">
<rect width="250" height="86" fill="white"/>
</clipPath>
</defs>
</svg>
