<svg width="306" height="86" viewBox="0 0 306 86" fill="none" xmlns="http://www.w3.org/2000/svg">
<g clip-path="url(#clip0_115_352)">
<path fill-rule="evenodd" clip-rule="evenodd" d="M258.695 72.7566C257.448 72.358 256.36 71.8966 255.439 71.3711L251.096 83.0318C253.037 83.9015 255.051 84.5989 257.114 85.1161C259.219 85.6417 261.521 85.9045 264.022 85.9045C267.969 85.9045 271.407 85.0773 274.336 83.4305C277.266 81.7836 279.585 78.9438 281.292 74.9275L305.374 17.7943H287.613L277.941 45.9593L268.175 17.7943H249.42L269.85 63.9506L267.088 70.1871C266.556 71.3726 265.912 72.1908 265.158 72.6521C264.404 73.115 263.404 73.3449 262.149 73.3449C261.101 73.3449 259.949 73.1538 258.695 72.7566ZM231.087 44.4319C232.072 44.3363 233.064 44.2482 234.048 44.1855V53.1812C233.191 53.8395 232.245 54.3724 231.239 54.7638C230.213 55.161 229.086 55.3521 227.832 55.3521C226.125 55.3521 224.791 54.9146 223.837 54.0233C222.885 53.1334 222.4 51.9957 222.4 50.6116C222.4 49.2918 222.83 48.0913 223.687 47.0014C224.545 45.9189 225.989 45.2038 228.03 44.8768C229.042 44.6831 230.062 44.5346 231.087 44.4319ZM235.136 62.2739L236.518 66.0349H251.024V35.587C251.024 29.128 249.151 24.3637 245.395 21.3014C241.648 18.2302 236.613 16.7028 230.301 16.7028C225.76 16.7028 221.861 17.3643 218.606 18.6841C215.377 19.981 212.391 21.8182 209.776 24.1174L217.47 32.7159C218.963 31.5202 220.604 30.5226 222.353 29.7477C224.054 29.021 225.887 28.653 227.736 28.6667C229.444 28.6667 230.929 29.128 232.175 30.0508C233.422 30.9735 234.048 32.4202 234.048 34.4015V35.587C232.384 35.6641 230.722 35.7781 229.063 35.9289C227.099 36.1137 225.142 36.3627 223.195 36.6754C220.967 36.9815 218.783 37.5452 216.685 38.3551C214.643 39.142 212.848 40.1677 211.301 41.4159C209.772 42.6483 208.528 44.1984 207.655 45.9593C206.767 47.7405 206.322 49.8248 206.322 52.1943C206.322 54.501 206.711 56.545 207.505 58.3188C208.269 60.0686 209.394 61.636 210.808 62.9174C212.222 64.2059 213.888 65.1764 215.795 65.8363C217.7 66.4873 219.773 66.8217 222.011 66.8217C224.973 66.8217 227.569 66.3768 229.809 65.4854C232.04 64.603 233.819 63.5295 235.136 62.2724V62.2739ZM129.573 5.60645L150.916 66.0334H164.041L171.536 40.7231L179.136 66.0334H192.356L209.435 17.7928H191.767L184.661 43.3957L177.261 17.7913H166.01L158.61 43.3972L146.272 5.60794H129.573V5.60645ZM99.0042 17.7913V29.8507H105.815V51.0073C105.815 53.441 106.063 55.6447 106.555 57.626C107.047 59.6058 107.889 61.284 109.074 62.668C110.256 64.0521 111.819 65.1271 113.757 65.8826C115.702 66.6381 118.085 67.0203 120.911 67.0203C124.27 67.0203 127.215 66.6217 129.749 65.8348C132.281 65.039 134.632 63.8938 136.799 62.3739L132.36 51.8912C131.453 52.584 130.476 53.181 129.446 53.6724C128.389 54.1944 127.227 54.4667 126.048 54.4682C124.793 54.4682 123.991 54.0068 123.626 53.0841C123.269 52.1614 123.087 50.8729 123.087 49.2261V29.8522H134.67L130.408 17.7928H123.087V5.63183H105.817V17.7928H99.0042V17.7913ZM80.9014 29.8985C82.2502 31.3766 83.0208 33.4071 83.219 35.9827H68.2207C68.4831 33.4773 69.3565 31.4647 70.8335 29.9462C72.3179 28.4353 74.0409 27.6708 76.0172 27.6708C77.9235 27.6708 79.551 28.4174 80.9014 29.8985ZM70.9363 51.9464C69.1895 50.3324 68.2535 48.0734 68.1179 45.1694H99.4021C99.3381 35.4825 97.1859 28.3158 92.9381 23.6694C88.6978 19.026 82.9895 16.7028 75.819 16.7028C72.3343 16.7028 69.0941 17.2597 66.1013 18.381C63.1071 19.5023 60.5271 21.1492 58.3511 23.3275C56.175 25.4999 54.4685 28.1486 53.2225 31.2825C51.9675 34.4165 51.3475 37.9863 51.3475 42.0116C51.3475 46.1638 51.9988 49.7994 53.3164 52.9333C54.6354 56.0583 56.4135 58.6667 58.6521 60.736C60.8833 62.8203 63.4961 64.3866 66.4978 65.4362C69.4906 66.4873 72.6906 67.0188 76.1126 67.0188C78.94 67.0188 81.4886 66.7889 83.7585 66.3275C86.03 65.8662 88.0391 65.2062 89.7784 64.3477C91.4294 63.5527 92.9871 62.5762 94.4226 61.4363C95.7729 60.3463 96.9713 59.1444 98.028 57.8246L87.4667 49.5202C86.1403 51.167 84.7124 52.3928 83.1713 53.1782C81.6227 53.9755 79.7657 54.3652 77.5971 54.3652C74.8994 54.3652 72.6757 53.5619 70.9348 51.9464H70.9363ZM20.0156 54.2233C19.324 54.1188 18.6101 53.977 17.8872 53.7694V30.4404C18.6816 30.1777 19.4671 29.9627 20.2615 29.8044C21.1051 29.6329 21.9643 29.5499 22.825 29.5566C25.5883 29.5566 27.8761 30.5435 29.6855 32.5158C31.4889 34.4971 32.3936 37.5593 32.3936 41.7115C32.3936 45.9981 31.4726 49.1798 29.6304 51.2566C27.7882 53.332 25.3901 54.3652 22.4286 54.3652C21.5075 54.3652 20.7056 54.3174 20.0141 54.2233H20.0156ZM22.0873 17.0462C20.6671 17.264 19.2637 17.5803 17.8872 17.9928V0.0955811H0.625V63.1622C3.57904 64.285 6.80286 65.2227 10.289 65.9796C13.7826 66.7426 17.6965 67.1248 22.0321 67.1248C25.9773 67.1248 29.614 66.5918 32.9421 65.5422C36.2598 64.4836 39.1423 62.8845 41.5717 60.7375C44.0101 58.6054 45.9 55.8851 47.2503 52.5854C48.5992 49.2918 49.2743 45.4024 49.2743 40.9247C49.2743 37.5593 48.7825 34.4015 47.7898 31.4348C46.8062 28.4681 45.3753 25.8986 43.5019 23.7202C41.6284 21.5478 39.3018 19.8308 36.5385 18.5811C33.7753 17.3329 30.6543 16.7043 27.1697 16.7043C25.2559 16.7043 23.5628 16.8148 22.0873 17.0462Z" fill="#FFD700"/>
</g>
<defs>
<clipPath id="clip0_115_352">
<rect width="304.794" height="86" fill="white" transform="translate(0.580078)"/>
</clipPath>
</defs>
</svg>
