<svg width="147" height="86" viewBox="0 0 147 86" fill="none" xmlns="http://www.w3.org/2000/svg">
<g clip-path="url(#clip0_115_354)">
<path d="M117.822 0L102.608 3.23292V64.6585H117.822V0Z" fill="#FFD700"/>
<path d="M74.505 18.3622C69.8619 18.3622 65.3232 19.739 61.4626 22.3185C57.602 24.8981 54.5931 28.5645 52.8163 32.8541C51.0395 37.1437 50.5746 41.8639 51.4804 46.4177C52.3862 50.9716 54.622 55.1545 57.9052 58.4377C61.1883 61.7208 65.3713 63.9566 69.9251 64.8625C74.4789 65.7683 79.1991 65.3034 83.4887 63.5266C87.7784 61.7497 91.4448 58.7408 94.0243 54.8802C96.6038 51.0197 97.9807 46.4809 97.9807 41.8379C97.9801 35.6119 95.5066 29.6411 91.1042 25.2387C86.7018 20.8362 80.731 18.3627 74.505 18.3622ZM74.505 49.4447C73.0005 49.4447 71.5298 48.9986 70.2788 48.1627C69.0279 47.3269 68.0529 46.1389 67.4771 44.7489C66.9014 43.3589 66.7508 41.8294 67.0443 40.3538C67.3378 38.8782 68.0623 37.5228 69.1261 36.459C70.19 35.3951 71.5454 34.6707 73.021 34.3771C74.4965 34.0836 76.026 34.2343 77.416 34.81C78.806 35.3858 79.994 36.3608 80.8299 37.6117C81.6657 38.8626 82.1119 40.3334 82.1119 41.8379C82.1119 43.8553 81.3104 45.7902 79.8839 47.2167C78.4573 48.6433 76.5225 49.4447 74.505 49.4447Z" fill="#FFD700"/>
<path d="M74.5053 70.7863C76.0098 70.7863 77.4805 71.2324 78.7315 72.0682C79.9824 72.9041 80.9574 74.0921 81.5332 75.4821C82.1089 76.8721 82.2595 78.4016 81.966 79.8772C81.6725 81.3528 80.948 82.7082 79.8842 83.772C78.8204 84.8359 77.4649 85.5603 75.9893 85.8538C74.5138 86.1474 72.9843 85.9967 71.5943 85.421C70.2043 84.8452 69.0163 83.8702 68.1804 82.6193C67.3446 81.3683 66.8984 79.8976 66.8984 78.3931C66.8984 76.3757 67.6999 74.4408 69.1264 73.0143C70.553 71.5877 72.4878 70.7863 74.5053 70.7863Z" fill="#FFD700"/>
<path d="M40.6545 30.4698C42.523 27.4443 43.5499 23.9749 43.6292 20.4199C43.7085 16.8648 42.8373 13.3531 41.1056 10.2473C39.374 7.14149 36.8446 4.55428 33.7788 2.75285C30.7129 0.951421 27.2218 0.00108797 23.6658 0L0 0V64.6585H26.6241C30.5849 64.6569 34.4558 63.478 37.745 61.2715C41.0342 59.0649 43.5933 55.9304 45.097 52.2662C46.6008 48.602 46.9813 44.5734 46.1903 40.6924C45.3993 36.8114 43.4724 33.2532 40.6545 30.4698ZM15.2349 15.2138H23.687C24.9479 15.2138 26.1572 15.7147 27.0488 16.6063C27.9404 17.4979 28.4413 18.7071 28.4413 19.9681C28.4413 21.229 27.9404 22.4383 27.0488 23.3299C26.1572 24.2215 24.9479 24.7224 23.687 24.7224H15.2349V15.2138ZM26.6452 49.4447H15.2349V39.9361H26.6452C27.9061 39.9361 29.1154 40.437 30.007 41.3286C30.8986 42.2202 31.3995 43.4295 31.3995 44.6904C31.3995 45.9513 30.8986 47.1606 30.007 48.0522C29.1154 48.9438 27.9061 49.4447 26.6452 49.4447Z" fill="#FFD700"/>
<path d="M146.559 34.4423V19.2286H138.952V7.60693L123.738 10.8399V50.2055C123.738 59.4816 129.507 64.8276 138.001 65.2713C138.086 65.2713 138.191 65.2924 138.276 65.2924H138.424C138.614 65.2924 138.783 65.3136 138.973 65.3136H139.163C141.755 65.3021 144.303 64.6487 146.58 63.4118V52.2128C145.471 52.5139 144.327 52.6632 143.178 52.6566C140.135 52.6566 138.973 49.9942 138.973 46.3809V34.4423H146.559Z" fill="#FFD700"/>
</g>
<defs>
<clipPath id="clip0_115_354">
<rect width="146.58" height="86" fill="white"/>
</clipPath>
</defs>
</svg>
