<svg width="35" height="34" viewBox="0 0 35 34" fill="none" xmlns="http://www.w3.org/2000/svg">
<path d="M11.2968 7.76605C10.7223 7.73484 10.2313 8.17531 10.2001 8.74977C10.1689 9.32423 10.6094 9.81514 11.1838 9.84635L23.1571 10.4963L7.59615 23.7866C7.1587 24.1602 7.10696 24.8177 7.48057 25.2552C7.85418 25.6926 8.51171 25.7444 8.94917 25.3708L24.5102 12.0804L23.2791 24.0082C23.2201 24.5804 23.6361 25.0923 24.2084 25.1513C24.7806 25.2104 25.2925 24.7943 25.3515 24.2221L26.8125 10.0669C26.8458 9.7446 26.7662 9.43758 26.6066 9.18434C26.574 9.12671 26.5354 9.07126 26.4907 9.01898C26.4461 8.96671 26.3973 8.91981 26.3452 8.87858C26.1202 8.68138 25.8296 8.55497 25.5063 8.53741L11.2968 7.76605Z" fill="#0C0C0C"/>
</svg>
